# xmcd
#
# Track frame offsets: 
#        150
#        16030
#        39467
#        59612
#        77965
#        94665
#        122742
#        142342
#        163097
#        184435
#        206828
#        217651
#
# Disc length: 3114 seconds
#
# Revision: 1
# Processed by: cddbd v1.5.2PL0 Copyright (c) Steve Scherf et al.
# Submitted via: ExactAudioCopy v0.95a4
#
DISCID=ae0c280c
DTITLE=Collapsed System - Commercial Asshole
DYEAR=1995
DGENRE=Industrial
TTITLE0=Mad
TTITLE1=In The Middle Of Hearts
TTITLE2=Keep It In Your Mind
TTITLE3=Young And Strong
TTITLE4=Ghetto King
TTITLE5=Believe Is One
TTITLE6=Atomic Asphyxia
TTITLE7=Time Machine
TTITLE8=Faith Assembly
TTITLE9=Holocaust
TTITLE10=Beetween The Fronts
TTITLE11=Mad (Remix)
EXTD=
EXTT0=
EXTT1=
EXTT2=
EXTT3=
EXTT4=
EXTT5=
EXTT6=
EXTT7=
EXTT8=
EXTT9=
EXTT10=
EXTT11=
PLAYORDER=
